<?xml version="1.0" encoding="UTF-8" standalone="no"?>
<!-- Created with Inkscape (http://www.inkscape.org/) -->

<svg
   xmlns:dc="http://purl.org/dc/elements/1.1/"
   xmlns:cc="http://creativecommons.org/ns#"
   xmlns:rdf="http://www.w3.org/1999/02/22-rdf-syntax-ns#"
   xmlns:svg="http://www.w3.org/2000/svg"
   xmlns="http://www.w3.org/2000/svg"
   xmlns:sodipodi="http://sodipodi.sourceforge.net/DTD/sodipodi-0.dtd"
   xmlns:inkscape="http://www.inkscape.org/namespaces/inkscape"
   width="744.09448819"
   height="1052.3622047"
   id="svg2"
   version="1.1"
   inkscape:version="0.48.2 r9819"
   sodipodi:docname="New document 1">
  <defs
     id="defs4">
    <marker
       inkscape:stockid="Arrow1Lend"
       orient="auto"
       refY="0.0"
       refX="0.0"
       id="Arrow1Lend"
       style="overflow:visible;">
      <path
         id="path5280"
         d="M 0.0,0.0 L 5.0,-5.0 L -12.5,0.0 L 5.0,5.0 L 0.0,0.0 z "
         style="fill-rule:evenodd;stroke:#000000;stroke-width:1.0pt;marker-start:none;"
         transform="scale(0.8) rotate(180) translate(12.5,0)" />
    </marker>
    <marker
       inkscape:stockid="Arrow1Lstart"
       orient="auto"
       refY="0.0"
       refX="0.0"
       id="Arrow1Lstart"
       style="overflow:visible">
      <path
         id="path5277"
         d="M 0.0,0.0 L 5.0,-5.0 L -12.5,0.0 L 5.0,5.0 L 0.0,0.0 z "
         style="fill-rule:evenodd;stroke:#000000;stroke-width:1.0pt;marker-start:none"
         transform="scale(0.8) translate(12.5,0)" />
    </marker>
    <pattern
       inkscape:stockid="Stripes 1:1"
       id="Strips1_1"
       patternTransform="translate(0,0) scale(10,10)"
       height="1"
       width="2"
       patternUnits="userSpaceOnUse"
       inkscape:collect="always">
      <rect
         id="rect4478"
         height="2"
         width="1"
         y="-0.5"
         x="0"
         style="fill:black;stroke:none" />
    </pattern>
  </defs>
  <sodipodi:namedview
     id="base"
     pagecolor="#ffffff"
     bordercolor="#666666"
     borderopacity="1.0"
     inkscape:pageopacity="0.0"
     inkscape:pageshadow="2"
     inkscape:zoom="0.5"
     inkscape:cx="433.54114"
     inkscape:cy="798.00222"
     inkscape:document-units="px"
     inkscape:current-layer="layer1"
     showgrid="true"
     inkscape:window-width="1059"
     inkscape:window-height="728"
     inkscape:window-x="0"
     inkscape:window-y="0"
     inkscape:window-maximized="0">
    <inkscape:grid
       type="xygrid"
       id="grid2985" />
  </sodipodi:namedview>
  <metadata
     id="metadata7">
    <rdf:RDF>
      <cc:Work
         rdf:about="">
        <dc:format>image/svg+xml</dc:format>
        <dc:type
           rdf:resource="http://purl.org/dc/dcmitype/StillImage" />
        <dc:title></dc:title>
      </cc:Work>
    </rdf:RDF>
  </metadata>
  <g
     inkscape:label="Layer 1"
     inkscape:groupmode="layer"
     id="layer1">
    <rect
       style="opacity:1;fill:none;fill-opacity:1;stroke:#000000;stroke-width:2;stroke-miterlimit:4;stroke-dasharray:none"
       id="rect2987"
       width="160"
       height="160"
       x="120"
       y="92.362183" />
    <path
       d="m 320,92.362183 a 40,40 0 1 1 -80,0 40,40 0 1 1 80,0 z"
       sodipodi:ry="40"
       sodipodi:rx="40"
       sodipodi:cy="92.362183"
       sodipodi:cx="280"
       id="path5250"
       style="fill:#ffffff;stroke:#000000;stroke-width:2;stroke-miterlimit:4;stroke-opacity:1;stroke-dasharray:none;stroke-dashoffset:0"
       sodipodi:type="arc"
       transform="translate(-160,0)" />
    <path
       sodipodi:type="arc"
       style="fill:url(#Strips1_1);stroke:#000000;stroke-width:2;stroke-miterlimit:4;stroke-opacity:1;stroke-dasharray:none;stroke-dashoffset:0;fill-opacity:1.0"
       id="path3757"
       sodipodi:cx="120"
       sodipodi:cy="92.362183"
       sodipodi:rx="40"
       sodipodi:ry="40"
       d="m 160,92.362183 a 40,40 0 1 1 -80,0 40,40 0 1 1 80,0 z" />
    <path
       sodipodi:type="arc"
       style="fill:#808080;stroke:#000000;stroke-width:2;stroke-miterlimit:4;stroke-opacity:1;stroke-dasharray:none;stroke-dashoffset:0"
       id="path5244"
       sodipodi:cx="280"
       sodipodi:cy="92.362183"
       sodipodi:rx="40"
       sodipodi:ry="40"
       d="m 320,92.362183 a 40,40 0 1 1 -80,0 40,40 0 1 1 80,0 z" />
    <rect
       y="92.362183"
       x="480"
       height="160"
       width="160"
       id="rect5252"
       style="fill:none;stroke:#000000;stroke-width:2;stroke-miterlimit:4;stroke-dasharray:none" />
    <path
       transform="translate(200,160)"
       sodipodi:type="arc"
       style="fill:#ffffff;stroke:#000000;stroke-width:2;stroke-miterlimit:4;stroke-opacity:1;stroke-dasharray:none;stroke-dashoffset:0"
       id="path5254"
       sodipodi:cx="280"
       sodipodi:cy="92.362183"
       sodipodi:rx="40"
       sodipodi:ry="40"
       d="m 320,92.362183 a 40,40 0 1 1 -80,0 40,40 0 1 1 80,0 z" />
    <path
       d="m 160,92.362183 a 40,40 0 1 1 -80,0 40,40 0 1 1 80,0 z"
       sodipodi:ry="40"
       sodipodi:rx="40"
       sodipodi:cy="92.362183"
       sodipodi:cx="120"
       id="path5256"
       style="fill:url(#Strips1_1);fill-opacity:1;stroke:#000000;stroke-width:2;stroke-miterlimit:4;stroke-opacity:1;stroke-dasharray:none;stroke-dashoffset:0"
       sodipodi:type="arc"
       transform="translate(360,160)" />
    <path
       d="m 320,92.362183 a 40,40 0 1 1 -80,0 40,40 0 1 1 80,0 z"
       sodipodi:ry="40"
       sodipodi:rx="40"
       sodipodi:cy="92.362183"
       sodipodi:cx="280"
       id="path5258"
       style="fill:#808080;stroke:#000000;stroke-width:2;stroke-miterlimit:4;stroke-opacity:1;stroke-dasharray:none;stroke-dashoffset:0"
       sodipodi:type="arc"
       transform="translate(360,160)" />
    <path
       transform="translate(360,0)"
       sodipodi:type="arc"
       style="fill:#ffffff;stroke:#000000;stroke-width:2;stroke-miterlimit:4;stroke-opacity:1;stroke-dasharray:none;stroke-dashoffset:0"
       id="path5260"
       sodipodi:cx="280"
       sodipodi:cy="92.362183"
       sodipodi:rx="40"
       sodipodi:ry="40"
       d="m 320,92.362183 a 40,40 0 1 1 -80,0 40,40 0 1 1 80,0 z" />
    <path
       d="m 160,92.362183 a 40,40 0 1 1 -80,0 40,40 0 1 1 80,0 z"
       sodipodi:ry="40"
       sodipodi:rx="40"
       sodipodi:cy="92.362183"
       sodipodi:cx="120"
       id="path5262"
       style="fill:url(#Strips1_1);fill-opacity:1;stroke:#000000;stroke-width:2;stroke-miterlimit:4;stroke-opacity:1;stroke-dasharray:none;stroke-dashoffset:0"
       sodipodi:type="arc"
       transform="translate(520,0)" />
    <path
       d="m 320,92.362183 a 40,40 0 1 1 -80,0 40,40 0 1 1 80,0 z"
       sodipodi:ry="40"
       sodipodi:rx="40"
       sodipodi:cy="92.362183"
       sodipodi:cx="280"
       id="path5264"
       style="fill:#808080;stroke:#000000;stroke-width:2;stroke-miterlimit:4;stroke-opacity:1;stroke-dasharray:none;stroke-dashoffset:0"
       sodipodi:type="arc"
       transform="translate(200,0)" />
    <path
       d="m 320,92.362183 a 40,40 0 1 1 -80,0 40,40 0 1 1 80,0 z"
       sodipodi:ry="40"
       sodipodi:rx="40"
       sodipodi:cy="92.362183"
       sodipodi:cx="280"
       id="path5266"
       style="fill:#ffffff;stroke:#000000;stroke-width:2;stroke-miterlimit:4;stroke-opacity:1;stroke-dasharray:none;stroke-dashoffset:0"
       sodipodi:type="arc"
       transform="translate(0,160)" />
    <path
       transform="translate(160,160)"
       sodipodi:type="arc"
       style="fill:url(#Strips1_1);fill-opacity:1;stroke:#000000;stroke-width:2;stroke-miterlimit:4;stroke-opacity:1;stroke-dasharray:none;stroke-dashoffset:0"
       id="path5268"
       sodipodi:cx="120"
       sodipodi:cy="92.362183"
       sodipodi:rx="40"
       sodipodi:ry="40"
       d="m 160,92.362183 a 40,40 0 1 1 -80,0 40,40 0 1 1 80,0 z" />
    <path
       transform="translate(-160,160)"
       sodipodi:type="arc"
       style="fill:#808080;stroke:#000000;stroke-width:2;stroke-miterlimit:4;stroke-opacity:1;stroke-dasharray:none;stroke-dashoffset:0"
       id="path5270"
       sodipodi:cx="280"
       sodipodi:cy="92.362183"
       sodipodi:rx="40"
       sodipodi:ry="40"
       d="m 320,92.362183 a 40,40 0 1 1 -80,0 40,40 0 1 1 80,0 z" />
    <path
       style="fill:none;stroke:#000000;stroke-width:2;stroke-linecap:butt;stroke-linejoin:miter;stroke-opacity:1;marker-start:url(#Arrow1Lstart);marker-mid:none;marker-end:url(#Arrow1Lend);stroke-miterlimit:4;stroke-dasharray:none"
       d="m 340,172.36218 80,0"
       id="path5272"
       inkscape:connector-curvature="0" />
  </g>
</svg>
